# xmcd
#
# Track frame offsets:
#	150
#	13386
#	25600
#	37497
#	49693
#	60058
#	73594
#	85696
#	99670
#	115707
#	127163
#	138174
#	150372
#	160877
#	173467
#	185987
#	196920
#	206664
#	217197
#	228313
#
# Disc length: 3176 seconds
#
# Revision: 2
# Processed by: cddbd v1.5.2PL0 Copyright (c) Steve Scherf et al.
# Submitted via: audiograbber 1.83.01
#
DISCID=140c6614
DTITLE=Various Artist - Motown Floorshakers - CD1
DYEAR=2012
DGENRE=Motown
TTITLE0=The Supremes - Love Is Like An Itching In My Heart
TTITLE1=Stevie Wonder - Nothing's Too Good For My Baby
TTITLE2=The Four Tops - Shake Me, Wake Me (When It's Over)
TTITLE3=Smokey Robinson and The Miracles - Whole Lot Of Shakin' In My Heart (Sinc
TTITLE3=e I Met You)
TTITLE4=Edwin Starr - (S.O.S) Stop Her On Sight
TTITLE5=Earl Van Dyke and The Soul Brothers - Nowhere To Run
TTITLE6=Marvin Gaye - This Love Starved Heart Of Mine (Is Killing Me)
TTITLE7=Brenda Holloway - Think It Over (Reconsider)
TTITLE8=Gladys Knight and The Pips - Here Are The Pieces Of My Broken Heart
TTITLE9=Martha Reeves and The Vandellas - One Way Out
TTITLE10=Marvin Gaye and Tammi Terrell - Ain't No Mountain High Enough
TTITLE11=The Contours - Just A Little Misunderstanding
TTITLE12=Edwin Starr - My Weakness Is You
TTITLE13=Kim Weston - I'm Still Loving You
TTITLE14=Barbara McNair - Baby A Go-Go
TTITLE15=Chris Clark - Do I Love You (Indeed I Do)
TTITLE16=The Velvelettes - Lonely, Lonely Girl Am I
TTITLE17=The Marvelettes - I'll Keep Holding On
TTITLE18=The Velvelettes - These Things Will Keep Me Loving You
TTITLE19=Brenda Holloway - When I'm Gone
EXTD=
EXTT0=
EXTT1=
EXTT2=
EXTT3=
EXTT4=
EXTT5=
EXTT6=
EXTT7=
EXTT8=
EXTT9=
EXTT10=
EXTT11=
EXTT12=
EXTT13=
EXTT14=
EXTT15=
EXTT16=
EXTT17=
EXTT18=
EXTT19=
PLAYORDER=
